<?xml version="1.0" encoding="UTF-8"?>
<svg xmlns="http://www.w3.org/2000/svg" xmlns:xlink="http://www.w3.org/1999/xlink" width="128.25pt" height="26.8565pt" viewBox="0 0 128.25 26.8565" version="1.1">
<g id="surface1">
<path style=" stroke:none;fill-rule:nonzero;fill:rgb(12.266541%,24.778748%,55.381775%);fill-opacity:1;" d="M 0.285156 24.289062 L 8.757812 24.289062 L 24.292969 8.78125 L 24.292969 0.285156 Z M 0.285156 24.289062 "/>
<path style=" stroke:none;fill-rule:nonzero;fill:rgb(12.266541%,24.778748%,55.381775%);fill-opacity:1;" d="M 48.296875 12.285156 C 48.296875 13.953125 47.984375 15.511719 47.363281 16.96875 C 46.738281 18.425781 45.882812 19.691406 44.792969 20.773438 C 43.703125 21.855469 42.433594 22.710938 40.976562 23.339844 C 39.519531 23.976562 37.960938 24.289062 36.292969 24.289062 C 35.191406 24.289062 34.125 24.148438 33.101562 23.859375 C 32.078125 23.570312 31.121094 23.164062 30.230469 22.644531 C 29.34375 22.125 28.535156 21.5 27.808594 20.773438 C 27.078125 20.046875 26.457031 19.238281 25.933594 18.347656 C 25.414062 17.460938 25.011719 16.503906 24.722656 15.480469 C 24.433594 14.457031 24.292969 13.390625 24.292969 12.285156 L 30.292969 12.285156 C 30.292969 13.101562 30.453125 13.875 30.773438 14.605469 C 31.09375 15.332031 31.523438 15.96875 32.070312 16.511719 C 32.613281 17.058594 33.25 17.488281 33.976562 17.808594 C 34.707031 18.128906 35.476562 18.289062 36.292969 18.289062 C 37.125 18.289062 37.90625 18.128906 38.636719 17.808594 C 39.363281 17.488281 40 17.058594 40.542969 16.511719 C 41.089844 15.96875 41.515625 15.332031 41.828125 14.605469 C 42.140625 13.875 42.296875 13.101562 42.296875 12.285156 Z M 48.296875 12.285156 "/>
<path style=" stroke:none;fill-rule:nonzero;fill:rgb(12.266541%,24.778748%,55.381775%);fill-opacity:1;" d="M 64.355469 9.488281 L 62.765625 6.066406 L 61.285156 9.488281 Z M 62.753906 4.222656 L 66.542969 12.289062 L 65.652344 12.289062 L 64.707031 10.257812 L 60.957031 10.257812 L 60.078125 12.289062 L 59.1875 12.289062 Z M 62.753906 4.222656 "/>
<path style=" stroke:none;fill-rule:nonzero;fill:rgb(12.266541%,24.778748%,55.381775%);fill-opacity:1;" d="M 72.097656 9.488281 L 70.507812 6.066406 L 69.027344 9.488281 Z M 70.496094 4.222656 L 74.28125 12.289062 L 73.390625 12.289062 L 72.449219 10.257812 L 68.695312 10.257812 L 67.820312 12.289062 L 66.929688 12.289062 Z M 70.496094 4.222656 "/>
<path style=" stroke:none;fill-rule:nonzero;fill:rgb(12.266541%,24.778748%,55.381775%);fill-opacity:1;" d="M 77.683594 8.28125 C 77.953125 8.28125 78.195312 8.242188 78.40625 8.167969 C 78.621094 8.089844 78.796875 7.984375 78.933594 7.855469 C 79.074219 7.722656 79.179688 7.570312 79.253906 7.394531 C 79.324219 7.21875 79.363281 7.03125 79.363281 6.835938 C 79.363281 6.636719 79.324219 6.449219 79.253906 6.269531 C 79.179688 6.089844 79.074219 5.933594 78.933594 5.804688 C 78.796875 5.671875 78.621094 5.566406 78.40625 5.492188 C 78.195312 5.414062 77.953125 5.375 77.683594 5.375 L 75.894531 5.375 L 75.894531 8.28125 Z M 75.074219 4.605469 L 77.738281 4.605469 C 78.117188 4.605469 78.460938 4.664062 78.765625 4.78125 C 79.066406 4.898438 79.324219 5.058594 79.53125 5.257812 C 79.742188 5.460938 79.902344 5.699219 80.015625 5.96875 C 80.128906 6.238281 80.183594 6.527344 80.183594 6.835938 C 80.183594 7.121094 80.136719 7.386719 80.042969 7.640625 C 79.949219 7.890625 79.808594 8.117188 79.625 8.308594 C 79.441406 8.503906 79.222656 8.664062 78.960938 8.792969 C 78.703125 8.921875 78.40625 9.003906 78.078125 9.039062 L 80.292969 12.289062 L 79.296875 12.289062 L 77.101562 9.050781 L 75.894531 9.050781 L 75.894531 12.289062 L 75.074219 12.289062 Z M 75.074219 4.605469 "/>
<path style=" stroke:none;fill-rule:nonzero;fill:rgb(12.266541%,24.778748%,55.381775%);fill-opacity:1;" d="M 81.515625 4.605469 L 82.339844 4.605469 L 82.339844 7.898438 L 86.398438 7.898438 L 86.398438 4.605469 L 87.222656 4.605469 L 87.222656 12.289062 L 86.398438 12.289062 L 86.398438 8.667969 L 82.339844 8.667969 L 82.339844 12.289062 L 81.515625 12.289062 Z M 81.515625 4.605469 "/>
<path style=" stroke:none;fill-rule:nonzero;fill:rgb(12.266541%,24.778748%,55.381775%);fill-opacity:1;" d="M 88.863281 4.605469 L 89.699219 4.605469 L 89.699219 9.511719 C 89.699219 9.921875 89.757812 10.265625 89.875 10.542969 C 89.992188 10.820312 90.144531 11.042969 90.328125 11.210938 C 90.515625 11.378906 90.726562 11.5 90.964844 11.574219 C 91.203125 11.648438 91.445312 11.683594 91.683594 11.683594 C 91.925781 11.683594 92.164062 11.648438 92.402344 11.574219 C 92.640625 11.5 92.851562 11.378906 93.039062 11.210938 C 93.226562 11.042969 93.378906 10.820312 93.496094 10.542969 C 93.613281 10.265625 93.671875 9.921875 93.671875 9.511719 L 93.671875 4.605469 L 94.503906 4.605469 L 94.503906 9.632812 C 94.503906 10.101562 94.421875 10.507812 94.261719 10.859375 C 94.101562 11.210938 93.886719 11.507812 93.621094 11.746094 C 93.355469 11.980469 93.050781 12.160156 92.714844 12.277344 C 92.378906 12.394531 92.035156 12.453125 91.683594 12.453125 C 91.332031 12.453125 90.988281 12.394531 90.652344 12.277344 C 90.316406 12.160156 90.015625 11.980469 89.746094 11.746094 C 89.480469 11.507812 89.265625 11.210938 89.105469 10.859375 C 88.945312 10.507812 88.863281 10.101562 88.863281 9.632812 Z M 88.863281 4.605469 "/>
<path style=" stroke:none;fill-rule:nonzero;fill:rgb(12.266541%,24.778748%,55.381775%);fill-opacity:1;" d="M 96.503906 10.039062 C 96.503906 10.273438 96.539062 10.488281 96.617188 10.691406 C 96.695312 10.890625 96.800781 11.066406 96.941406 11.210938 C 97.082031 11.359375 97.246094 11.472656 97.441406 11.558594 C 97.632812 11.640625 97.851562 11.683594 98.09375 11.683594 C 98.335938 11.683594 98.554688 11.644531 98.757812 11.570312 C 98.957031 11.492188 99.132812 11.382812 99.277344 11.246094 C 99.425781 11.105469 99.539062 10.941406 99.617188 10.757812 C 99.699219 10.570312 99.738281 10.367188 99.738281 10.148438 C 99.738281 9.941406 99.695312 9.761719 99.605469 9.609375 C 99.519531 9.457031 99.402344 9.324219 99.257812 9.210938 C 99.109375 9.097656 98.941406 8.992188 98.746094 8.902344 C 98.550781 8.8125 98.351562 8.726562 98.148438 8.644531 C 97.863281 8.535156 97.589844 8.421875 97.324219 8.308594 C 97.0625 8.195312 96.828125 8.058594 96.628906 7.898438 C 96.425781 7.738281 96.265625 7.546875 96.140625 7.324219 C 96.015625 7.097656 95.953125 6.816406 95.953125 6.472656 C 95.953125 6.1875 96.007812 5.917969 96.113281 5.671875 C 96.21875 5.421875 96.367188 5.207031 96.550781 5.023438 C 96.738281 4.839844 96.960938 4.699219 97.226562 4.59375 C 97.488281 4.492188 97.777344 4.441406 98.09375 4.441406 C 98.414062 4.441406 98.710938 4.496094 98.976562 4.605469 C 99.242188 4.714844 99.472656 4.867188 99.664062 5.054688 C 99.851562 5.246094 100 5.472656 100.101562 5.730469 C 100.203125 5.992188 100.253906 6.273438 100.253906 6.582031 L 99.410156 6.582031 C 99.410156 6.164062 99.289062 5.832031 99.042969 5.582031 C 98.796875 5.335938 98.480469 5.210938 98.09375 5.210938 C 97.707031 5.210938 97.390625 5.324219 97.144531 5.554688 C 96.898438 5.785156 96.777344 6.089844 96.777344 6.472656 C 96.777344 6.675781 96.824219 6.851562 96.917969 6.992188 C 97.015625 7.136719 97.136719 7.261719 97.292969 7.367188 C 97.445312 7.472656 97.625 7.566406 97.824219 7.652344 C 98.027344 7.734375 98.234375 7.820312 98.457031 7.910156 C 98.734375 8.019531 99 8.132812 99.25 8.25 C 99.503906 8.367188 99.726562 8.507812 99.917969 8.671875 C 100.113281 8.835938 100.269531 9.035156 100.386719 9.269531 C 100.503906 9.503906 100.5625 9.796875 100.5625 10.148438 C 100.5625 10.492188 100.5 10.804688 100.371094 11.085938 C 100.242188 11.367188 100.066406 11.609375 99.84375 11.816406 C 99.621094 12.019531 99.359375 12.175781 99.058594 12.289062 C 98.757812 12.398438 98.4375 12.453125 98.09375 12.453125 C 97.75 12.453125 97.429688 12.390625 97.136719 12.269531 C 96.847656 12.148438 96.589844 11.980469 96.375 11.765625 C 96.160156 11.550781 95.992188 11.296875 95.867188 11.003906 C 95.742188 10.710938 95.679688 10.390625 95.679688 10.039062 Z M 96.503906 10.039062 "/>
<path style=" stroke:none;fill-rule:nonzero;fill:rgb(12.266541%,24.778748%,55.381775%);fill-opacity:1;" d="M 59.933594 16.53125 L 60.769531 16.53125 L 60.769531 21.4375 C 60.769531 21.847656 60.828125 22.191406 60.945312 22.46875 C 61.0625 22.746094 61.214844 22.96875 61.402344 23.136719 C 61.585938 23.308594 61.796875 23.429688 62.035156 23.5 C 62.273438 23.574219 62.515625 23.609375 62.753906 23.609375 C 62.996094 23.609375 63.238281 23.574219 63.472656 23.5 C 63.710938 23.429688 63.921875 23.308594 64.109375 23.136719 C 64.296875 22.96875 64.449219 22.746094 64.566406 22.46875 C 64.683594 22.191406 64.742188 21.847656 64.742188 21.4375 L 64.742188 16.53125 L 65.574219 16.53125 L 65.574219 21.558594 C 65.574219 22.027344 65.496094 22.4375 65.332031 22.785156 C 65.171875 23.136719 64.957031 23.433594 64.691406 23.671875 C 64.425781 23.90625 64.121094 24.085938 63.785156 24.203125 C 63.449219 24.320312 63.105469 24.378906 62.753906 24.378906 C 62.40625 24.378906 62.058594 24.320312 61.722656 24.203125 C 61.386719 24.085938 61.085938 23.90625 60.820312 23.671875 C 60.550781 23.433594 60.335938 23.136719 60.175781 22.785156 C 60.015625 22.4375 59.933594 22.027344 59.933594 21.558594 Z M 59.933594 16.53125 "/>
<path style=" stroke:none;fill-rule:nonzero;fill:rgb(12.266541%,24.778748%,55.381775%);fill-opacity:1;" d="M 67.324219 16.257812 L 72.6875 22.414062 L 72.6875 16.53125 L 73.511719 16.53125 L 73.511719 24.488281 L 68.144531 18.355469 L 68.144531 24.214844 L 67.324219 24.214844 Z M 67.324219 16.257812 "/>
<path style=" stroke:none;fill-rule:nonzero;fill:rgb(12.266541%,24.778748%,55.381775%);fill-opacity:1;" d="M 75.324219 16.53125 L 76.148438 16.53125 L 76.148438 24.214844 L 75.324219 24.214844 Z M 75.324219 16.53125 "/>
<path style=" stroke:none;fill-rule:nonzero;fill:rgb(12.266541%,24.778748%,55.381775%);fill-opacity:1;" d="M 77.121094 16.53125 L 78.019531 16.53125 L 80.566406 22.578125 L 82.9375 16.53125 L 83.816406 16.53125 L 80.578125 24.597656 Z M 77.121094 16.53125 "/>
<path style=" stroke:none;fill-rule:nonzero;fill:rgb(12.266541%,24.778748%,55.381775%);fill-opacity:1;" d="M 84.753906 16.53125 L 89.363281 16.53125 L 89.363281 17.300781 L 85.578125 17.300781 L 85.578125 19.824219 L 89.035156 19.824219 L 89.035156 20.59375 L 85.578125 20.59375 L 85.578125 23.445312 L 89.363281 23.445312 L 89.363281 24.214844 L 84.753906 24.214844 Z M 84.753906 16.53125 "/>
<path style=" stroke:none;fill-rule:nonzero;fill:rgb(12.266541%,24.778748%,55.381775%);fill-opacity:1;" d="M 93.316406 20.207031 C 93.589844 20.207031 93.828125 20.167969 94.042969 20.09375 C 94.253906 20.015625 94.429688 19.914062 94.570312 19.78125 C 94.707031 19.648438 94.8125 19.496094 94.886719 19.320312 C 94.960938 19.144531 94.996094 18.957031 94.996094 18.761719 C 94.996094 18.5625 94.960938 18.375 94.886719 18.195312 C 94.8125 18.015625 94.707031 17.859375 94.570312 17.730469 C 94.429688 17.597656 94.253906 17.492188 94.042969 17.417969 C 93.828125 17.339844 93.589844 17.300781 93.316406 17.300781 L 91.527344 17.300781 L 91.527344 20.207031 Z M 90.707031 16.53125 L 93.371094 16.53125 C 93.753906 16.53125 94.09375 16.589844 94.398438 16.707031 C 94.703125 16.824219 94.957031 16.984375 95.167969 17.183594 C 95.375 17.386719 95.535156 17.625 95.648438 17.894531 C 95.761719 18.164062 95.820312 18.453125 95.820312 18.761719 C 95.820312 19.046875 95.773438 19.316406 95.675781 19.566406 C 95.582031 19.820312 95.441406 20.042969 95.261719 20.234375 C 95.078125 20.429688 94.855469 20.589844 94.597656 20.71875 C 94.335938 20.847656 94.042969 20.929688 93.714844 20.964844 L 95.929688 24.214844 L 94.929688 24.214844 L 92.734375 20.976562 L 91.527344 20.976562 L 91.527344 24.214844 L 90.707031 24.214844 Z M 90.707031 16.53125 "/>
<path style=" stroke:none;fill-rule:nonzero;fill:rgb(12.266541%,24.778748%,55.381775%);fill-opacity:1;" d="M 97.601562 21.964844 C 97.601562 22.199219 97.640625 22.414062 97.714844 22.617188 C 97.792969 22.816406 97.902344 22.992188 98.039062 23.136719 C 98.179688 23.285156 98.34375 23.398438 98.539062 23.484375 C 98.734375 23.566406 98.953125 23.609375 99.191406 23.609375 C 99.433594 23.609375 99.65625 23.570312 99.855469 23.496094 C 100.058594 23.417969 100.230469 23.308594 100.378906 23.171875 C 100.523438 23.03125 100.636719 22.867188 100.71875 22.683594 C 100.796875 22.496094 100.839844 22.292969 100.839844 22.074219 C 100.839844 21.867188 100.792969 21.691406 100.707031 21.535156 C 100.617188 21.382812 100.5 21.25 100.355469 21.136719 C 100.207031 21.023438 100.039062 20.917969 99.84375 20.828125 C 99.652344 20.738281 99.453125 20.652344 99.246094 20.570312 C 98.960938 20.460938 98.6875 20.351562 98.425781 20.234375 C 98.160156 20.121094 97.929688 19.984375 97.726562 19.824219 C 97.527344 19.664062 97.363281 19.472656 97.238281 19.25 C 97.113281 19.027344 97.050781 18.742188 97.050781 18.398438 C 97.050781 18.113281 97.105469 17.847656 97.210938 17.597656 C 97.316406 17.347656 97.464844 17.132812 97.652344 16.949219 C 97.835938 16.765625 98.0625 16.625 98.324219 16.523438 C 98.589844 16.417969 98.878906 16.367188 99.191406 16.367188 C 99.515625 16.367188 99.808594 16.421875 100.074219 16.53125 C 100.34375 16.644531 100.570312 16.792969 100.761719 16.984375 C 100.953125 17.171875 101.097656 17.398438 101.199219 17.65625 C 101.300781 17.917969 101.355469 18.199219 101.355469 18.507812 L 100.507812 18.507812 C 100.507812 18.089844 100.386719 17.757812 100.140625 17.507812 C 99.898438 17.261719 99.582031 17.136719 99.191406 17.136719 C 98.804688 17.136719 98.488281 17.25 98.242188 17.480469 C 97.996094 17.714844 97.875 18.019531 97.875 18.398438 C 97.875 18.601562 97.921875 18.777344 98.019531 18.917969 C 98.113281 19.0625 98.238281 19.1875 98.390625 19.292969 C 98.542969 19.398438 98.722656 19.492188 98.921875 19.578125 C 99.125 19.660156 99.335938 19.746094 99.554688 19.835938 C 99.832031 19.945312 100.097656 20.058594 100.351562 20.175781 C 100.601562 20.292969 100.824219 20.433594 101.019531 20.597656 C 101.210938 20.761719 101.367188 20.960938 101.484375 21.195312 C 101.601562 21.429688 101.660156 21.722656 101.660156 22.074219 C 101.660156 22.417969 101.597656 22.730469 101.46875 23.011719 C 101.339844 23.292969 101.164062 23.535156 100.941406 23.742188 C 100.71875 23.945312 100.457031 24.105469 100.15625 24.214844 C 99.859375 24.324219 99.535156 24.378906 99.191406 24.378906 C 98.847656 24.378906 98.53125 24.316406 98.238281 24.195312 C 97.945312 24.074219 97.691406 23.90625 97.476562 23.691406 C 97.257812 23.476562 97.089844 23.222656 96.964844 22.929688 C 96.839844 22.636719 96.777344 22.316406 96.777344 21.964844 Z M 97.601562 21.964844 "/>
<path style=" stroke:none;fill-rule:nonzero;fill:rgb(12.266541%,24.778748%,55.381775%);fill-opacity:1;" d="M 103.085938 16.53125 L 103.910156 16.53125 L 103.910156 24.214844 L 103.085938 24.214844 Z M 103.085938 16.53125 "/>
<path style=" stroke:none;fill-rule:nonzero;fill:rgb(12.266541%,24.778748%,55.381775%);fill-opacity:1;" d="M 107.132812 17.300781 L 104.882812 17.300781 L 104.882812 16.53125 L 110.203125 16.53125 L 110.203125 17.300781 L 107.957031 17.300781 L 107.957031 24.214844 L 107.132812 24.214844 Z M 107.132812 17.300781 "/>
<path style=" stroke:none;fill-rule:nonzero;fill:rgb(12.266541%,24.778748%,55.381775%);fill-opacity:1;" d="M 113.398438 20.625 L 110.765625 16.53125 L 111.730469 16.53125 L 113.816406 19.867188 L 115.902344 16.53125 L 116.867188 16.53125 L 114.222656 20.648438 L 114.222656 24.214844 L 113.398438 24.214844 Z M 113.398438 20.625 "/>
</g>
</svg>
